<?xml version="1.0" encoding="UTF-8"?>
<svg width="512px" height="512px" viewBox="0 0 512 512" version="1.1" xmlns="http://www.w3.org/2000/svg" xmlns:xlink="http://www.w3.org/1999/xlink">
    <!-- Generator: Sketch 52.5 (67469) - http://www.bohemiancoding.com/sketch -->
    <title>Icon Copy</title>
    <desc>Created with Sketch.</desc>
    <g id="Icon-Copy" stroke="none" stroke-width="1" fill="none" fill-rule="evenodd">
        <g id="coin" transform="translate(256.000000, 256.000000) rotate(-315.000000) translate(-256.000000, -256.000000) translate(56.000000, 56.000000)" fill="#00BCD4">
            <g id="Group-2">
                <path d="M0.303426448,211.111111 L22.5637998,211.111111 C28.0727134,300.444602 99.5553978,371.927287 188.888889,377.4362 L188.888889,399.696574 C87.2782374,394.132626 5.86737421,312.721763 0.303426448,211.111111 Z M0.303426448,188.888889 C5.86737421,87.2782374 87.2782374,5.86737421 188.888889,0.303426448 L188.888889,22.5637998 C99.5553978,28.0727134 28.0727134,99.5553978 22.5637998,188.888889 L0.303426448,188.888889 Z M399.696574,188.888889 L377.4362,188.888889 C371.927287,99.5553978 300.444602,28.0727134 211.111111,22.5637998 L211.111111,0.303426448 C312.721763,5.86737421 394.132626,87.2782374 399.696574,188.888889 Z M399.696574,211.111111 C394.132626,312.721763 312.721763,394.132626 211.111111,399.696574 L211.111111,377.4362 C300.444602,371.927287 371.927287,300.444602 377.4362,211.111111 L399.696574,211.111111 Z" id="Shape"></path>
                <path d="M200,355.555556 C114.089039,355.555556 44.4444444,285.910961 44.4444444,200 C44.4444444,114.089039 114.089039,44.4444444 200,44.4444444 C285.910961,44.4444444 355.555556,114.089039 355.555556,200 C355.555556,285.910961 285.910961,355.555556 200,355.555556 Z M164.444444,144.444444 C153.398749,144.444444 144.444444,153.398749 144.444444,164.444444 L144.444444,235.555556 C144.444444,246.601251 153.398749,255.555556 164.444444,255.555556 L235.555556,255.555556 C246.601251,255.555556 255.555556,246.601251 255.555556,235.555556 L255.555556,164.444444 C255.555556,153.398749 246.601251,144.444444 235.555556,144.444444 L164.444444,144.444444 Z" id="Shape"></path>
            </g>
        </g>
    </g>
</svg>